<svg version="1.1" id="Layer_1" xmlns="http://www.w3.org/2000/svg" xmlns:xlink="http://www.w3.org/1999/xlink" x="0px" y="0px"
	 width="100%" viewBox="0 0 128 128" enable-background="new 0 0 128 128" xml:space="preserve">
<path fill="#313739" opacity="1.000000" stroke="none" 
	d="
M75.000000,129.000000 
	C50.000000,129.000000 25.500000,129.000000 1.000000,129.000000 
	C1.000000,86.333336 1.000000,43.666668 1.000000,1.000000 
	C43.666668,1.000000 86.333336,1.000000 129.000000,1.000000 
	C129.000000,43.666668 129.000000,86.333336 129.000000,129.000000 
	C111.166664,129.000000 93.333336,129.000000 75.000000,129.000000 
M41.967392,68.498795 
	C35.411770,64.508797 34.481941,58.322258 34.802032,51.334885 
	C34.998451,47.047195 34.900322,42.512604 33.663551,38.478519 
	C32.898075,35.981697 30.090946,33.229248 27.586603,32.360310 
	C24.108494,31.153494 21.201012,33.559002 19.929359,37.086029 
	C19.325567,38.760693 19.054754,40.634190 19.027039,42.423710 
	C18.923967,49.078552 19.589085,55.803921 18.849932,62.377331 
	C17.554644,73.896553 20.510410,83.563667 28.861544,91.657799 
	C30.751038,93.489136 32.511322,95.664368 33.649048,98.011856 
	C35.394417,101.613113 36.947052,105.412460 37.809727,109.299042 
	C38.359726,111.776962 38.817776,113.365829 41.608727,113.400330 
	C47.432198,113.472305 53.255451,113.577324 59.077927,113.707626 
	C62.049412,113.774117 63.226181,112.361694 63.151321,109.427933 
	C63.032509,104.771484 62.916206,100.098801 63.168842,95.453110 
	C63.490879,89.531181 60.762894,85.373405 56.472080,81.713585 
	C51.679222,77.625557 47.121613,73.261726 41.967392,68.498795 
M67.892975,95.700264 
	C67.886780,100.198738 67.986168,104.700691 67.838486,109.194511 
	C67.734306,112.364174 68.977242,113.817055 72.199478,113.720840 
	C77.694550,113.556770 83.193291,113.450020 88.690514,113.449165 
	C91.819740,113.448677 92.750526,112.122391 93.205017,108.975418 
	C93.723053,105.388542 95.004646,101.615860 96.983749,98.599258 
	C100.811050,92.765610 105.435783,87.460732 109.560730,81.813065 
	C110.683632,80.275650 111.862244,78.308006 111.891968,76.519157 
	C112.091248,64.526733 112.117821,52.527111 111.918869,40.534492 
	C111.835960,35.536545 108.525414,32.186863 104.425667,32.075191 
	C100.170952,31.959301 97.344360,34.958805 96.944756,40.310448 
	C96.510857,46.121178 96.375038,51.955620 95.868324,57.758682 
	C95.688156,59.821941 95.432701,62.468502 94.129951,63.744022 
	C87.727943,70.012177 81.022591,75.977257 74.301544,81.910233 
	C70.377342,85.374306 67.476181,89.204964 67.892975,95.700264 
M85.494080,47.875687 
	C87.908463,35.758514 84.295929,24.918818 78.499123,14.511722 
	C76.882721,11.609773 74.821259,11.717643 72.235291,13.032353 
	C63.245064,17.603003 55.881516,24.060892 51.249676,32.986881 
	C46.811928,41.538845 47.117481,50.507633 52.644653,58.531525 
	C54.689175,61.499592 59.268120,62.775688 61.149567,65.786728 
	C62.942375,68.655914 62.726597,72.780151 63.393864,76.352631 
	C63.859241,76.320610 64.324615,76.288589 64.789993,76.256569 
	C64.789993,74.567368 65.010612,72.842331 64.743332,71.196533 
	C64.212975,67.930840 64.987640,66.139816 68.574722,65.129593 
	C77.038139,62.746052 82.257141,56.724598 85.494080,47.875687 
z"/>
<path fill="#02CE18" opacity="1.000000" stroke="none" 
	d="
M42.214508,68.758362 
	C47.121613,73.261726 51.679222,77.625557 56.472080,81.713585 
	C60.762894,85.373405 63.490879,89.531181 63.168842,95.453110 
	C62.916206,100.098801 63.032509,104.771484 63.151321,109.427933 
	C63.226181,112.361694 62.049412,113.774117 59.077927,113.707626 
	C53.255451,113.577324 47.432198,113.472305 41.608727,113.400330 
	C38.817776,113.365829 38.359726,111.776962 37.809727,109.299042 
	C36.947052,105.412460 35.394417,101.613113 33.649048,98.011856 
	C32.511322,95.664368 30.751038,93.489136 28.861544,91.657799 
	C20.510410,83.563667 17.554644,73.896553 18.849932,62.377331 
	C19.589085,55.803921 18.923967,49.078552 19.027039,42.423710 
	C19.054754,40.634190 19.325567,38.760693 19.929359,37.086029 
	C21.201012,33.559002 24.108494,31.153494 27.586603,32.360310 
	C30.090946,33.229248 32.898075,35.981697 33.663551,38.478519 
	C34.900322,42.512604 34.998451,47.047195 34.802032,51.334885 
	C34.481941,58.322258 35.411770,64.508797 42.214508,68.758362 
M58.837627,99.568970 
	C59.083302,94.648209 58.850178,89.962883 54.725128,86.301903 
	C48.769802,81.016541 43.079315,75.430016 37.058647,70.223106 
	C35.651756,69.006363 33.372562,68.798248 31.494701,68.126083 
	C31.959551,70.177299 31.871578,72.626900 33.003395,74.197479 
	C35.420437,77.551491 38.574730,80.365105 41.183376,83.596756 
	C41.814960,84.379166 41.500023,85.925629 41.620335,87.120750 
	C40.472733,87.017044 38.864422,87.362770 38.252991,86.736008 
	C34.540306,82.930214 30.777042,79.113197 27.575615,74.887115 
	C24.673119,71.055649 25.567026,67.236305 28.823416,63.732758 
	C29.895319,62.579498 30.717762,60.652859 30.678406,59.104668 
	C30.530563,53.288807 30.153557,47.462620 29.469687,41.686802 
	C29.275183,40.044071 27.748566,38.559067 26.832838,37.001732 
	C25.879583,38.627495 24.142693,40.233532 24.101179,41.882252 
	C23.845713,52.028198 23.720003,62.193806 24.121115,72.330315 
	C24.247963,75.535881 25.620707,78.970482 27.291288,81.785065 
	C32.558514,90.659256 41.980000,96.992096 43.262135,108.905190 
	C45.679451,108.905190 47.967110,108.920387 50.254513,108.902550 
	C59.951942,108.826935 58.699730,110.148308 58.837627,99.568970 
z"/>
<path fill="#02CE18" opacity="1.000000" stroke="none" 
	d="
M67.896545,95.233238 
	C67.476181,89.204964 70.377342,85.374306 74.301544,81.910233 
	C81.022591,75.977257 87.727943,70.012177 94.129951,63.744022 
	C95.432701,62.468502 95.688156,59.821941 95.868324,57.758682 
	C96.375038,51.955620 96.510857,46.121178 96.944756,40.310448 
	C97.344360,34.958805 100.170952,31.959301 104.425667,32.075191 
	C108.525414,32.186863 111.835960,35.536545 111.918869,40.534492 
	C112.117821,52.527111 112.091248,64.526733 111.891968,76.519157 
	C111.862244,78.308006 110.683632,80.275650 109.560730,81.813065 
	C105.435783,87.460732 100.811050,92.765610 96.983749,98.599258 
	C95.004646,101.615860 93.723053,105.388542 93.205017,108.975418 
	C92.750526,112.122391 91.819740,113.448677 88.690514,113.449165 
	C83.193291,113.450020 77.694550,113.556770 72.199478,113.720840 
	C68.977242,113.817055 67.734306,112.364174 67.838486,109.194511 
	C67.986168,104.700691 67.886780,100.198738 67.896545,95.233238 
M97.879272,81.382935 
	C96.404251,82.963577 95.066673,84.714218 93.401901,86.060173 
	C92.425819,86.849335 90.928581,86.993889 89.665771,87.428406 
	C89.803741,85.991585 89.422417,84.146408 90.173279,83.191536 
	C92.838989,79.801567 96.112511,76.880135 98.680702,73.427803 
	C99.627449,72.155128 99.255859,69.901749 99.485580,68.095680 
	C97.847046,68.536842 96.142479,68.822800 94.596107,69.480614 
	C93.744499,69.842888 93.182358,70.855797 92.449402,71.531662 
	C87.452942,76.138969 82.262390,80.555748 77.523033,85.413132 
	C75.309174,87.682129 73.092033,90.603874 72.434906,93.574524 
	C71.557480,97.541016 72.032425,101.853477 72.300812,105.993088 
	C72.366364,107.004204 73.836121,108.686790 74.750969,108.750122 
	C79.014900,109.045273 83.310631,108.880943 85.707382,108.880943 
	C89.738327,102.269012 92.785683,96.894211 96.211189,91.772308 
	C98.886292,87.772438 102.155586,84.173203 104.904343,80.217705 
	C105.972084,78.681229 106.898170,76.664589 106.927902,74.850922 
	C107.110512,63.709278 107.122864,52.560947 106.892471,41.421036 
	C106.861526,39.924572 105.144424,38.462982 104.208130,36.985241 
	C103.272491,38.343639 101.676826,39.628551 101.515984,41.073212 
	C100.835876,47.181461 100.458931,53.333405 100.267891,59.478596 
	C100.224663,60.868999 101.038498,62.613476 102.028580,63.649544 
	C105.541275,67.325401 106.142715,70.984489 103.233772,75.192970 
	C101.825165,77.230865 100.004089,78.983650 97.879272,81.382935 
z"/>
<path fill="#03CB19" opacity="1.000000" stroke="none" 
	d="
M85.367775,48.248810 
	C82.257141,56.724598 77.038139,62.746052 68.574722,65.129593 
	C64.987640,66.139816 64.212975,67.930840 64.743332,71.196533 
	C65.010612,72.842331 64.789993,74.567368 64.789993,76.256569 
	C64.324615,76.288589 63.859241,76.320610 63.393864,76.352631 
	C62.726597,72.780151 62.942375,68.655914 61.149567,65.786728 
	C59.268120,62.775688 54.689175,61.499592 52.644653,58.531525 
	C47.117481,50.507633 46.811928,41.538845 51.249676,32.986881 
	C55.881516,24.060892 63.245064,17.603003 72.235291,13.032353 
	C74.821259,11.717643 76.882721,11.609773 78.499123,14.511722 
	C84.295929,24.918818 87.908463,35.758514 85.367775,48.248810 
M70.645859,32.022335 
	C67.831703,41.335579 64.273804,50.512024 65.155052,61.206444 
	C72.655396,59.658577 77.549446,55.424507 80.053841,48.913708 
	C84.418228,37.567348 79.767853,27.591852 74.803925,17.207573 
	C65.495071,21.681749 58.811047,27.916498 54.719425,36.616299 
	C52.115818,42.152210 52.352493,48.084972 55.086903,53.533100 
	C56.377182,56.103886 58.803230,58.104633 61.103539,60.823284 
	C63.218643,51.784901 64.894600,44.027321 66.930000,36.365223 
	C67.408798,34.562824 69.100571,33.082645 70.645859,32.022335 
z"/>
<path fill="#303B38" opacity="1.000000" stroke="none" 
	d="
M58.837593,100.037384 
	C58.699730,110.148308 59.951942,108.826935 50.254513,108.902550 
	C47.967110,108.920387 45.679451,108.905190 43.262135,108.905190 
	C41.980000,96.992096 32.558514,90.659256 27.291288,81.785065 
	C25.620707,78.970482 24.247963,75.535881 24.121115,72.330315 
	C23.720003,62.193806 23.845713,52.028198 24.101179,41.882252 
	C24.142693,40.233532 25.879583,38.627495 26.832838,37.001732 
	C27.748566,38.559067 29.275183,40.044071 29.469687,41.686802 
	C30.153557,47.462620 30.530563,53.288807 30.678406,59.104668 
	C30.717762,60.652859 29.895319,62.579498 28.823416,63.732758 
	C25.567026,67.236305 24.673119,71.055649 27.575615,74.887115 
	C30.777042,79.113197 34.540306,82.930214 38.252991,86.736008 
	C38.864422,87.362770 40.472733,87.017044 41.620335,87.120750 
	C41.500023,85.925629 41.814960,84.379166 41.183376,83.596756 
	C38.574730,80.365105 35.420437,77.551491 33.003395,74.197479 
	C31.871578,72.626900 31.959551,70.177299 31.494701,68.126083 
	C33.372562,68.798248 35.651756,69.006363 37.058647,70.223106 
	C43.079315,75.430016 48.769802,81.016541 54.725128,86.301903 
	C58.850178,89.962883 59.083302,94.648209 58.837593,100.037384 
z"/>
<path fill="#2F3B38" opacity="1.000000" stroke="none" 
	d="
M98.124519,81.124229 
	C100.004089,78.983650 101.825165,77.230865 103.233772,75.192970 
	C106.142715,70.984489 105.541275,67.325401 102.028580,63.649544 
	C101.038498,62.613476 100.224663,60.868999 100.267891,59.478596 
	C100.458931,53.333405 100.835876,47.181461 101.515984,41.073212 
	C101.676826,39.628551 103.272491,38.343639 104.208130,36.985241 
	C105.144424,38.462982 106.861526,39.924572 106.892471,41.421036 
	C107.122864,52.560947 107.110512,63.709278 106.927902,74.850922 
	C106.898170,76.664589 105.972084,78.681229 104.904343,80.217705 
	C102.155586,84.173203 98.886292,87.772438 96.211189,91.772308 
	C92.785683,96.894211 89.738327,102.269012 85.707382,108.880943 
	C83.310631,108.880943 79.014900,109.045273 74.750969,108.750122 
	C73.836121,108.686790 72.366364,107.004204 72.300812,105.993088 
	C72.032425,101.853477 71.557480,97.541016 72.434906,93.574524 
	C73.092033,90.603874 75.309174,87.682129 77.523033,85.413132 
	C82.262390,80.555748 87.452942,76.138969 92.449402,71.531662 
	C93.182358,70.855797 93.744499,69.842888 94.596107,69.480614 
	C96.142479,68.822800 97.847046,68.536842 99.485580,68.095673 
	C99.255859,69.901749 99.627449,72.155128 98.680702,73.427803 
	C96.112511,76.880135 92.838989,79.801567 90.173279,83.191536 
	C89.422417,84.146408 89.803741,85.991585 89.665771,87.428406 
	C90.928581,86.993889 92.425819,86.849335 93.401901,86.060173 
	C95.066673,84.714218 96.404251,82.963577 98.124519,81.124229 
z"/>
<path fill="#303938" opacity="1.000000" stroke="none" 
	d="
M70.440094,31.738281 
	C69.100571,33.082645 67.408798,34.562824 66.930000,36.365223 
	C64.894600,44.027321 63.218643,51.784901 61.103539,60.823284 
	C58.803230,58.104633 56.377182,56.103886 55.086903,53.533100 
	C52.352493,48.084972 52.115818,42.152210 54.719425,36.616299 
	C58.811047,27.916498 65.495071,21.681749 74.803925,17.207573 
	C79.767853,27.591852 84.418228,37.567348 80.053841,48.913708 
	C77.549446,55.424507 72.655396,59.658577 65.155052,61.206444 
	C64.273804,50.512024 67.831703,41.335579 70.440094,31.738281 
z"/>
</svg>